<svg width="47" height="94" viewBox="0 0 47 94" fill="none" xmlns="http://www.w3.org/2000/svg">
<path d="M45.1729 0.0227282C20.3646 0.969635 0.343984 21.5298 0.00443546 46.3659C-0.343602 72.0131 19.8341 93.0064 45.1432 94C45.1432 94 44.9989 92.3482 45.2875 91.1253C45.3214 90.9767 45.3257 90.8281 45.2875 90.6795C45.0965 89.8472 45.0116 88.6965 45.0668 88.1317C45.1262 87.516 45.3384 87.2952 45.0923 86.7008C44.8461 86.1063 45.2111 85.8855 44.9989 85.4269C44.7867 84.9641 44.4344 85.1169 43.6831 85.1849C42.9361 85.2528 42.9191 84.9216 42.448 85.3844C41.9769 85.8472 41.4548 85.8133 40.7885 86.0723C40.1221 86.3313 38.5644 86.0511 37.9278 85.894C37.5161 85.7921 37.3675 85.8685 37.185 86.1657C36.7818 86.8196 36.1749 87.3462 35.4491 87.5967C34.4729 87.9322 34.2861 87.516 33.5731 87.4141C32.8727 87.3122 32.0324 87.274 32.321 86.8154C32.6096 86.3568 34.2055 86.7942 34.5026 86.8154C34.8039 86.8366 34.5365 85.9959 34.2225 85.7156C33.9084 85.4354 33.3821 85.5755 32.6266 85.274C31.8711 84.9725 32.1724 84.4205 32.6605 84.3908C33.1486 84.3611 33.7513 84.8706 33.9084 84.3908C34.0654 83.911 34.7954 83.6095 35.3812 83.4099C35.9669 83.2104 35.9669 83.0278 35.4703 82.9301C34.9695 82.8282 34.9143 82.5692 34.3413 82.2295C33.7683 81.8898 33.1274 81.8303 32.5841 81.9874C32.0409 82.1488 32.321 82.2677 32.3931 82.6668C32.4653 83.066 31.8244 83.1254 31.2005 83.4099C30.5765 83.6902 30.0842 83.049 29.4815 83.2868C28.8788 83.5246 28.4204 83.5713 28.4247 83.1509C28.4247 82.7305 28.5562 82.548 27.4145 82.5097C26.2728 82.4715 26.3874 81.9492 26.9094 81.7284C27.4272 81.5076 27.8135 81.4482 28.1997 81.1255C28.5859 80.807 29.0019 81.0236 29.4093 80.6244C29.8168 80.2253 31.0562 80.3654 32.0409 80.2422C33.0255 80.1234 33.0892 79.9408 32.6308 79.7284C32.1724 79.5161 31.7947 79.4779 31.1962 79.2571C30.5978 79.0363 30.0969 79.2571 29.3754 79.117C28.6581 78.9769 28.7854 78.5947 28.7515 78.1064C28.7218 77.6139 28.8491 77.1128 29.299 76.5396C29.7489 75.9663 30.7251 76.2338 31.714 75.9111C32.6987 75.5926 33.0977 75.7328 33.8617 75.7115C34.6214 75.6903 34.91 75.2105 35.4915 75.1723C36.073 75.134 36.3022 74.633 36.4507 74.2296C36.5993 73.8305 37.4651 73.3464 37.7962 72.8878C38.123 72.4292 37.1213 72.6076 36.4592 72.5269C35.8014 72.4462 35.8013 73.3506 35.1435 73.4271C34.4856 73.5078 34.0527 72.7264 33.7216 72.3273C33.3863 71.9281 32.8261 71.9069 31.8074 71.8475C30.7888 71.788 30.2455 71.9494 28.6199 72.1872C26.9943 72.4292 27.2872 71.1808 27.996 71.1256C28.7048 71.0704 29.1717 70.2254 29.7362 70.0344C30.3007 69.8433 30.046 69.546 29.647 69.287C29.2523 69.028 29.855 68.8284 29.9654 68.3061C30.0757 67.7839 30.6827 67.4654 31.6843 67.2998C32.6902 67.1342 33.4457 67.4442 34.2437 67.4229C35.0459 67.4017 35.0968 66.7817 35.7462 66.3401C36.3956 65.8985 36.2979 65.6607 36.8073 65.3168C37.3123 64.9771 37.5118 64.0132 37.9745 63.733C38.4413 63.4527 37.8259 62.9729 36.9898 62.6926C36.1536 62.4124 35.8014 61.8731 35.4873 61.7118C35.1689 61.5504 34.3413 61.8901 33.7046 61.7967C33.0637 61.7033 32.6266 61.6099 31.2641 61.733C29.9017 61.8519 29.5664 61.8476 29.6683 61.3721C29.7701 60.8965 31.1198 60.7309 31.7777 60.612C32.4356 60.4931 32.4483 60.37 32.8218 59.7373C33.1953 59.1046 33.4542 58.9899 35.2241 58.6884C36.9898 58.387 36.7903 58.5483 38.0339 58.3063C39.2775 58.0643 39.0907 57.4061 38.5093 57.4231C37.9278 57.4443 37.8089 57.4443 37.1511 57.3424C36.4932 57.2405 36.1664 57.4443 35.2835 57.5632C34.4007 57.6821 33.7428 57.4231 33.068 57.283C32.3889 57.1428 32.3974 56.8031 31.9645 56.3233C31.5315 55.8435 31.7607 55.3424 31.9857 55.0027C32.2106 54.663 33.0425 54.7904 33.6495 54.8116C34.2564 54.8371 34.3455 54.0176 34.5111 53.7161C34.6766 53.4147 35.1859 53.0155 34.5832 52.9391C33.9848 52.8626 34.1503 52.5951 33.8574 52.1748C33.5646 51.7544 33.0637 51.6949 32.5672 51.5081C32.0706 51.3213 32.3507 50.6249 32.9619 50.7098C33.5731 50.799 33.7598 50.0686 34.5153 50.0474C35.2708 50.0304 35.0459 50.6079 35.7462 50.6886C36.4465 50.7693 36.994 51.5081 37.5288 51.869C38.0636 52.23 38.9252 52.1493 40.0669 52.2512C41.2044 52.3531 41.8878 52.2512 41.8878 52.2512C41.51 52.0304 41.7519 51.9709 41.2723 51.4317C40.7927 50.8924 41.1535 49.61 40.555 49.4912C39.9566 49.3723 39.7783 49.1514 39.0398 49.109C38.3013 49.0708 37.4567 49.2491 36.2895 49.4275C35.1265 49.6058 34.77 49.3425 34.0315 49.2279C33.2929 49.1132 33.8023 48.2767 34.5068 48.2852C35.2156 48.2937 35.5637 48.4466 35.6316 48.0644C35.6995 47.6823 36.2215 47.6058 36.9431 47.5634C37.6646 47.5251 37.4864 47.4614 37.932 47.1642C38.3777 46.8627 39.0186 46.9434 40.0372 46.9222C41.0601 46.901 41.7689 47.4233 42.4947 47.2407C43.2205 47.0623 42.4862 46.6802 41.9047 46.5231C41.3275 46.3659 40.4956 45.7375 40.5253 45.1558C40.555 44.574 40.2707 44.7142 39.6552 44.5061C39.0398 44.2938 38.7851 44.7311 37.7877 44.6547C36.7945 44.5783 37.4397 43.9116 36.5823 43.8522C35.7207 43.7927 35.5424 43.7333 34.9228 43.6101C34.3031 43.4912 34.3116 42.9392 34.8591 42.6887C35.4066 42.4382 36.6035 42.5104 37.4269 42.4891C38.2461 42.4679 38.6323 42.3278 38.8997 41.9286C39.1671 41.5295 38.8064 41.487 37.8853 41.47C36.9643 41.4531 37.0067 41.2874 36.5356 40.7694C36.0645 40.2471 36.8158 39.7461 36.5356 39.4658C36.2597 39.1856 36.264 38.9053 36.9516 38.6845C37.6349 38.4637 37.3845 38.0433 38.0848 37.882C38.7894 37.7206 39.3242 38.0221 40.0669 37.882C40.8097 37.7419 40.016 37.4234 39.3793 37.2408C38.6366 37.0285 38.9507 36.2897 39.7953 36.4213C40.6399 36.5487 40.8521 36.502 40.746 35.9202C40.6357 35.3385 40.9837 34.9394 41.1917 34.3958C41.3997 33.8566 41.128 33.415 40.8139 33.054C40.4999 32.6931 41.2554 31.9543 40.7375 31.7929C40.2197 31.6316 40.016 30.7526 40.9752 30.7526C41.9345 30.7526 42.1254 31.3938 42.5329 31.9755C42.9446 32.5572 42.5626 32.6549 43.959 32.8757C45.3554 33.0965 44.4132 32.1963 45.8477 31.2324C46.5141 30.9267 46.4589 30.6125 46.4589 30.6125L46.5396 29.8439C46.5905 29.4702 45.4785 29.4702 44.723 29.2324C43.9675 28.9904 43.7383 29.3938 42.9488 28.7102C42.1594 28.0308 42.9871 27.6104 42.9871 27.6104C42.0278 27.5892 42.3419 26.8291 41.6204 26.8079C40.8988 26.7866 40.7715 26.086 41.7435 25.9416C42.7154 25.7973 43.1101 26.1879 43.8741 26.1285C45.8562 25.9713 46.4335 26.5106 46.5778 26.1285L46.7476 25.6614C46.8324 25.4533 46.4547 25.3047 45.9751 25.1646C45.4955 25.0244 45.9836 24.5616 45.0838 24.6635C44.1797 24.7654 43.7892 24.0054 44.7824 23.5638C44.2222 23.602 42.7833 23.4831 42.1806 23.4236C41.5822 23.3642 41.9047 22.5234 42.3546 22.5829C42.8045 22.6423 42.7069 21.8992 43.8656 22.1031C46.6372 22.5914 46.5184 22.1625 46.5184 22.1625L46.6754 21.4449C46.565 21.1689 45.3215 21.4024 44.6254 21.4406C43.9293 21.4746 43.8487 20.8462 44.4471 20.6848C45.0456 20.5235 46.3528 20.3536 46.5184 20.3579C47.0107 20.3663 46.8919 19.7634 46.6924 19.6275C46.06 19.1944 45.9921 18.9014 45.3045 18.7868C44.4853 18.6509 43.942 17.5851 44.566 17.5638C45.1856 17.5426 45.5549 17.8526 45.8987 18.0054C46.7051 18.3664 46.7603 18.0054 46.7603 18.0054L46.9258 17.3006C46.9852 16.8547 46.6754 16.7486 46.5481 16.7486C46.3146 16.7486 45.9623 16.7061 45.6016 16.7061C45.0795 16.7061 44.4938 16.0267 44.0736 15.9843C43.6534 15.946 43.8232 15.1647 44.3283 15.203C44.8333 15.2412 44.9055 14.7189 45.9199 14.7061C46.9385 14.6892 47.0022 14.5618 47.0829 14.2136C47.1635 13.8611 47.1805 13.5299 46.009 13.411C45.6483 13.3728 45.7926 12.6807 45.9623 12.6595C46.5014 12.5873 46.599 12.375 46.9725 12.3198C47.0701 12.307 47.138 12.2264 47.155 12.1329C47.2272 11.6489 47.6728 10.6977 47.6728 10.6977C48.3816 10.7104 47.9742 11.8824 48.0803 12.0947C48.1906 12.3028 47.8935 12.7316 48.3562 12.7784C48.8188 12.8208 48.7933 12.9312 48.8061 13.4153C48.8188 13.8994 49.0565 13.6955 49.6083 14.1202C50.16 14.5448 50.0115 14.8463 49.9393 15.3728C49.8629 15.8993 48.9461 15.5936 48.9122 16.2518C48.8782 16.9099 49.4003 17.1987 49.6804 17.6148C49.9563 18.0352 49.4555 17.9248 49.0989 18.0989C48.7424 18.273 48.5896 18.2984 49.2135 18.7952C49.8374 19.2963 49.6677 19.5723 49.4852 19.878C49.3027 20.188 49.7186 20.0649 50.2067 20.2092C50.6906 20.3536 50.8603 20.1116 51.4121 20.4088C51.9639 20.706 51.7729 20.6466 52.0827 20.9608C52.3925 21.2708 51.8747 21.5765 51.6073 21.7506C51.34 21.9247 50.0624 21.9714 49.5785 22.0139C49.0947 22.0563 48.8952 22.103 48.9249 22.7187C48.9546 23.3344 49.1753 23.6444 49.3196 23.9077C49.4639 24.171 48.9249 24.1922 48.8952 24.5913C48.8655 24.9862 49.065 25.0966 49.2984 25.2962C49.5319 25.4958 50.334 25.4958 50.6396 25.5595C50.9452 25.6274 52.0488 25.3769 52.4647 25.5382C52.8806 25.6996 53.148 26.2686 53.1438 26.9013C53.1438 27.534 53.4961 28.1327 53.6404 28.5743C53.7847 29.0159 54.4638 28.7951 54.6888 29.0371C54.9137 29.2792 54.9222 29.5212 54.8967 29.8057C54.8713 30.0902 54.4977 29.9586 54.1242 29.8736C53.7507 29.7845 53.1099 30.0053 52.8043 29.9161C52.4987 29.8269 51.7941 29.9586 51.463 30.0053C51.132 30.0477 50.8349 29.5637 50.7712 29.3471C50.7075 29.1263 50.2237 29.1942 50.003 29.3259C49.7823 29.4575 49.0353 29.3938 48.8061 29.6783C48.5811 29.9628 48.8655 30.1157 49.0013 30.3832C49.1371 30.6464 49.7398 30.5573 50.7075 30.536C51.6753 30.5148 52.2016 30.5148 52.8807 30.6252C53.5597 30.7356 53.3136 31.0668 53.4324 31.2834C53.5513 31.5042 54.1624 31.3471 54.2261 31.691C54.294 32.0307 53.8866 32.3619 53.2202 32.7356C52.5538 33.1092 51.5691 32.8247 50.8434 32.8035C50.1176 32.7823 49.9181 32.8248 49.1626 32.9564C48.4071 33.088 48.6533 33.5296 48.7297 34.1665C48.8061 34.8035 49.6677 34.7823 50.1515 34.8247C50.6354 34.8672 50.5717 34.7355 50.5972 34.3619C50.6269 33.9882 50.6057 33.9203 51.1659 33.8566C51.7262 33.7886 52.6769 33.7037 53.2032 33.657C53.7295 33.6145 53.6616 33.9203 54.1158 34.2727C54.5699 34.6251 54.9646 34.6676 55.3127 34.9776C55.6607 35.2875 55.8772 35.2876 55.6098 35.5933C55.3424 35.9033 55.6098 35.899 54.8288 36.209C54.0478 36.519 53.2202 36.3406 53.6531 36.7355C54.0861 37.1304 54.0181 37.1516 54.8288 37.3767C55.6395 37.6017 56.153 37.589 56.3356 37.9881C56.5181 38.3873 56.3016 38.6463 56.013 38.9053C55.7244 39.1601 55.822 39.6824 55.7286 40.056C55.6352 40.4297 54.7736 40.5826 54.3747 40.7609C53.9757 40.935 54.1242 41.3087 54.4723 41.4063C54.8203 41.504 55.1684 41.7928 54.7694 42.1027C54.3704 42.4127 53.581 42.2768 54.2346 42.608C54.8882 42.9392 56.4756 42.7524 57.1038 42.8501C57.732 42.9477 57.6556 43.1133 57.7404 43.3766C57.8253 43.6399 57.7022 43.9031 57.0868 43.8607C56.4714 43.8182 56.4332 43.9286 55.9663 44.1452C55.4994 44.3617 55.1684 44.4764 55.6904 44.7396C56.2125 45.0029 57.0147 45.0751 56.9298 45.4657C56.8449 45.8564 55.8262 45.7502 54.9901 45.7969C54.154 45.8394 53.8951 45.5549 53.1735 46.039C52.452 46.523 51.3909 46.6971 50.75 46.8755C50.1091 47.0496 50.2831 47.2704 50.4401 47.644C50.5972 48.0177 51.2975 48.1706 52.1294 48.5018C52.9571 48.833 54.1624 49.0538 54.5996 49.3595C55.0325 49.6695 55.7371 49.644 56.7473 49.7119C57.7574 49.7799 58.0673 50.0389 57.923 50.3276C57.7786 50.6164 57.2566 50.8117 56.7133 51.5208C56.1743 52.2299 56.4289 52.4975 56.0385 52.8584C55.648 53.2151 55.5546 53.5633 56.412 53.5166C57.3627 53.4699 58.3983 53.5463 58.9161 53.6482C59.4339 53.7501 59.4127 54.2002 59.2939 54.5739C59.1793 54.9475 59.417 54.8032 59.5231 55.2745C59.6292 55.7458 58.7888 55.6949 58.8567 56.1152C58.9204 56.5314 58.2965 56.404 57.8253 56.7522C57.3584 57.1046 58.2752 57.3891 58.9289 57.8095C59.5825 58.2256 60.0876 58.1917 60.6266 58.7861C61.1656 59.3806 59.9135 59.4146 58.9883 59.3254C58.0672 59.2362 58.0248 59.215 57.5792 59.4825C57.1335 59.75 56.7176 59.6099 55.8432 59.4825C54.9646 59.3551 54.5487 59.3679 54.0988 59.8986C53.6489 60.4252 53.8144 60.4294 54.8118 60.6035C55.8093 60.7776 56.17 60.9984 57.2141 61.5929C58.2583 62.1873 59.0137 62.0132 59.6419 62.2043C60.2701 62.3954 60.6818 62.2595 60.9704 62.8455C61.259 63.4315 61.2633 63.8136 60.9704 64.0557C60.6818 64.2977 59.7692 64.7393 60.7836 64.7605C61.7938 64.7818 61.9933 64.7818 61.9381 65.3126C61.8829 65.8391 60.9831 65.8179 59.9942 65.8646C59.0053 65.907 58.67 66.1491 58.1224 66.7648C57.5749 67.3805 58.1606 67.4909 58.5936 67.8221C59.0265 68.1533 58.4323 68.3486 58.0885 68.6373C57.7447 68.9261 57.8423 69.2276 58.0715 69.58C58.3007 69.9324 58.4026 69.9537 59.1029 70.0471C59.8032 70.1405 60.0621 70.4377 60.2786 70.6798C60.495 70.9218 60.2998 71.3294 59.7395 71.2955C59.1835 71.2615 59.3618 71.5163 59.1114 72.0004C58.861 72.4844 58.7506 72.5524 58.2625 72.8156C57.7744 73.0789 56.9934 72.5311 56.1785 72.5736C55.3636 72.616 55.1047 72.3995 54.5359 72.3103C53.9672 72.2211 53.7677 72.2424 53.0886 71.9791C52.4138 71.7158 51.8365 71.8687 51.3951 71.8899C50.9537 71.9112 51.2253 72.1829 51.2975 72.5057C51.3697 72.8284 51.1532 73.1935 50.4062 73.253C49.6592 73.3167 49.0989 73.7158 49.8459 73.7965C50.5929 73.8814 51.3697 73.4483 53.1523 73.4695C54.9349 73.4908 56.0172 73.4738 56.6624 73.7965C57.3033 74.115 58.0121 74.5481 59.7735 74.5056C61.5349 74.4631 62.2862 74.5608 62.2055 74.9897C62.1249 75.4143 61.6665 75.5629 61.0256 75.8687C60.3847 76.1786 58.6912 76.1531 60.2022 76.3739C61.7174 76.5948 61.6919 76.7688 62.2989 77.0788C62.9101 77.3888 63.551 77.2529 63.169 77.6945C62.787 78.1361 62.961 78.1531 62.405 78.5735C61.849 78.9939 60.3295 78.9684 61.293 79.2784C62.2564 79.5883 62.3498 79.5289 62.2225 80.1149C62.0952 80.6966 60.9789 80.773 60.1852 80.9047C59.3915 81.0363 59.2302 81.4779 60.0197 81.5628C60.8091 81.652 61.8405 81.6945 62.8506 81.8728C63.8608 82.0469 63.7462 82.204 63.6741 82.531C63.6019 82.8622 63.2793 83.4312 62.422 83.8515C61.5604 84.2677 60.4399 85.0617 59.8329 84.8197C59.226 84.5776 58.8907 84.7517 57.9569 85.1509C57.0274 85.5458 56.0894 85.1084 55.4994 84.7772C54.9137 84.446 54.2643 84.8876 53.4536 84.756C52.643 84.6243 50.8179 84.4927 50.2322 85.4608C49.6422 86.429 49.1796 86.5818 48.9292 87.1084C48.6787 87.6349 48.7891 88.7559 48.8867 89.4396C48.9843 90.1232 48.9971 90.7134 48.9461 91.1125C48.8952 91.5075 48.9461 92.3652 49.0183 93.1592C49.031 93.2951 49.014 93.9958 49.014 93.9958C74.0345 92.9299 94 72.3273 94 47.0326C94 20.4428 71.9463 -0.992118 45.1432 0.0354664L45.1729 0.0227282Z" fill="#D5D5D5"/>
</svg>
